<?xml version="1.0"?>
<svg xmlns:rdf="http://www.w3.org/1999/02/22-rdf-syntax-ns#" xmlns="http://www.w3.org/2000/svg" xmlns:cc="http://creativecommons.org/ns#" xmlns:dc="http://purl.org/dc/elements/1.1/" xmlns:svg="http://www.w3.org/2000/svg" id="svg2" viewBox="0 0 1052.4 744.09" version="1.1">
  <g id="layer2" fill-rule="evenodd">
    <path id="path3009" d="m322.7 508.64c-0.0149-0.00028-0.0297-0.006-0.0444-0.0169-0.0143-0.0106-0.0284-0.0263-0.0425-0.047-0.028-0.0411-0.0557-0.10176-0.0836-0.18206-0.0549-0.15844-0.11016-0.39253-0.16839-0.70172-0.11359-0.60305-0.23845-1.4888-0.39838-2.6488-0.30293-2.197-0.72569-5.3707-1.4918-9.4215-0.6787-3.5829-1.6182-7.8541-3.0682-12.665-1.4499-4.8112-3.4097-10.166-6.2221-15.79-2.4838-4.9679-5.6408-10.145-9.735-15.118 0-0.00001-0.00001-0.00001-0.00001-0.00002-3.903-4.7436-8.682-9.309-14.375-13.211-5.7959-3.98-12.575-7.2631-20.064-9.5736-8.2514-2.5498-17.376-3.8978-26.997-4.1614-9.3787-0.25069-19.233 1.1616-28.906 4.3572-8.8552 2.9195-17.579 7.3377-25.93 12.907-7.7071 5.1341-15.07 11.216-22.086 18.075-7.0158 6.8583-13.684 14.493-20.032 22.643-9.8137 12.63-18.813 26.56-26.93 41.488-2.4353 4.4795-4.7843 9.0372-7.0027 13.684-1.6758 2.2134-3.359 4.4341-5.0491 6.6617-19.401-4.0771-39.315-8.296-59.612-12.606 6.9362-4.8141 13.926-9.6698 20.964-14.556 1.2151-0.84361 2.4288-1.6862 3.6411-2.5276 6.978-3.808 13.715-7.813 19.99-12.261 5.7345-4.112 11.093-8.2706 14.884-13.292 2.4996-3.4039 4.8084-6.3902 5.5175-9.3856 0-0.00001 0.00001-0.00001 0.00001-0.00002 0.9045-2.6799 0.29477-6.0971-0.65453-9.6303-0.9381-3.0034-2.0246-5.7592-3.6174-7.8804-0.74388-0.96555-1.4394-1.7633-2.148-2.1783 0-0.00001 0-0.00001-0.00001-0.00001-0.58117-0.35874-1.2251-0.60001-1.7235-0.56758h-0.00001c-21.798-1.1514-42.913-2.248-63.178-3.2497 4.0161-16.108 9.7657-31.301 17.72-44.45 8.6916-12.278 19.395-22.215 30.679-29.987 7.3041-5.0246 14.764-9.217 22.151-12.851 7.3875-3.6344 14.703-6.7107 21.779-9.4395 11.415-4.4099 22.268-7.9776 32.359-11.044 10.091-3.0668 19.42-5.6306 27.851-7.873h0.00002c2.8167-0.74001 5.5492-1.1018 8.1602-1.2889 2.6111-0.18706 5.1009-0.19887 7.4476-0.17878 6.928 0.0338 12.981 0.53986 18.129 1.0735h0.00001c6.4652 0.66907 11.528 1.4363 15.101 2.0816 2.0124 0.36347 3.5527 0.69304 4.602 0.96877 0.55058 0.14467 0.96629 0.2747 1.2441 0.3878 0.14214 0.0578 0.24825 0.11123 0.31793 0.15995 0.0298 0.0637 0.0543 0.0975 0.0715 0.11528 0.0171 0.0177 0.027 0.0196 0.0278 0.0198h0.00002-0.00002c-0.00072-0.00008-0.0109-0.00088-0.032 0.0116-0.0213 0.0126-0.0539 0.0386-0.0997 0.0921-0.0799 0.0286-0.19584 0.0523-0.34743 0.0715-0.29684 0.0374-0.73023 0.0572-1.2977 0.0614-1.0814 0.008-2.6484-0.0405-4.6822-0.12645-3.6109-0.15263-8.6904-0.43726-15.121-0.63693h-0.00001c-5.1266-0.15859-11.107-0.29905-17.825 0.0158-2.3134 0.1161-4.7019 0.24528-7.109 0.52044s-4.8328 0.69577-7.2004 1.4533c0 0.00001 0 0.00001-0.00001 0.00001-8.3045 2.5917-17.487 5.4817-27.384 8.8385-9.8972 3.3568-20.509 7.178-31.603 11.789-6.8703 2.8605-13.928 6.0206-20.986 9.6731s-14.116 7.7971-20.929 12.69c-10.47 7.5094-20.321 16.938-28.16 28.382-8.5267 10.504-15.165 22.92-20.459 36.244 18.943-1.0017 38.571-2.0982 58.772-3.2497h0.00005c2.5791 0.0324 4.9853 0.77935 7.0031 2.0938 0.00001 0.00001 0.00003 0.00002 0.00004 0.00003 2.0134 1.3374 3.5827 2.9442 4.7596 4.6025 2.4726 3.4324 4.0717 7.1732 5.1382 10.82 1.4556 4.4442 2.11 9.6737 0.7664 15.107 0 0.00002-0.00001 0.00003-0.00001 0.00005-1.5665 5.2171-4.4277 9.3517-7.1603 12.781-4.8656 6.2834-10.938 11.157-16.999 15.399-6.7687 4.7904-13.9 9.0437-21.167 12.999-1.2895 0.38255-2.5806 0.76546-3.8733 1.1488-7.4876 2.2202-14.926 4.4233-22.308 6.6142 18.002 2.0734 35.673 4.1185 52.956 6.1555-0.0518-1.3148-0.10088-2.6274-0.14691-3.9379 2.3405-4.836 4.8053-9.5542 7.3502-14.167 8.4383-15.298 17.846-29.594 28.125-42.564 6.6259-8.3795 13.668-16.252 21.128-23.348 7.46-7.0954 15.338-13.413 23.602-18.772 8.9877-5.8215 18.478-10.409 28.165-13.426 10.614-3.3 21.391-4.6086 31.635-4.1167 10.185 0.4859 19.929 2.1939 28.784 5.1754 8.0519 2.7145 15.309 6.5142 21.492 11.05 6.0669 4.4574 11.054 9.5757 15.048 14.838 0 0.00001 0 0.00001 0.00001 0.00002 4.1828 5.5131 7.2916 11.145 9.6468 16.495 2.6615 6.0479 4.3906 11.728 5.5682 16.792 1.1776 5.0632 1.8031 9.5131 2.15 13.224 0.3933 4.1952 0.42106 7.4657 0.3192 9.7138-0.0538 1.1869-0.1457 2.0925-0.25091 2.7045-0.0539 0.31372-0.11148 0.55109-0.16975 0.71009-0.0295 0.0804-0.0592 0.14086-0.0887 0.18126-0.0149 0.0203-0.0297 0.0356-0.0444 0.0457-0.0152 0.0105-0.0302 0.0156-0.0451 0.0153z"/>
    <path id="path3013" d="m47.862 445.99c-0.08013-0.63165 18.403-3.5903 52.165-8.4379 3.3531-0.48058 6.7939-0.72603 10.174-1.3683 3.0513-0.60107 6.1201-1.4765 8.5493-3.2654 31.72-22.652 75.184-53.389 127.82-90.406 20.126-14.153 41.968-28.736 65.591-43.209 23.623-14.472 49.026-28.834 76.299-42.405 22.643-11.273 46.623-22.039 71.933-31.501 25.31-9.4615 51.952-17.617 79.895-23.499 15.817-3.3195 32.034-5.3128 48.398-6.6692 18.211-1.5136 36.697-2.2179 55.367-2.4351 37.68-0.43918 76.214 1.062 115.3 3.6543 3.4785 0.23055 6.9617 0.47002 10.45 0.71835 28.172 2.0058 55.954 4.5405 83.264 7.492 9.4993 1.0266 18.946 2.1048 28.333 3.2536 2.5719 0.31476 5.1415 0.63509 7.7082 0.96476 0.00002 0 0.00004 0.00001 0.00006 0.00001 0.66939 0.086 1.3397 0.17274 2.011 0.26082 0.17141 0.0225 0.34346 0.0452 0.51615 0.068l0.00001 0.00001c0.75653 0.75694 1.5134 1.5139 2.2705 2.2709 0.0114 0.002 0.0229 0.003 0.0343 0.005 0.004 0.00054 0.008 0.001 0.0117 0.002 1.6316 12.476 5.4976 24.697 11.06 36.002 4.5871 9.9722 10.688 19.179 17.784 27.415 6.4365 7.4593 13.662 14.125 21.518 19.736 6.2954 4.4634 12.805 8.3357 19.662 10.638 6.9093 2.4028 12.759 6.7276 17.315 11.878 4.4046 4.95 7.8137 10.511 10.515 16.209 2.2068 4.627 4.005 9.395 5.4398 14.223 0.44228 1.4854 0.8536 2.9907 1.2221 4.5167 0 0.00002 0.00001 0.00004 0.00001 0.00006 0.10117 0.41891 0.20059 0.84674 0.29606 1.2839v0.00001c0.0361 0.18208 0.0727 0.36864 0.10948 0.55974 0.005 0.026 0.01 0.0521 0.0149 0.0782 0.002 0.009 0.003 0.0183 0.005 0.0274 1.8093 18.329 3.5894 36.309 5.3393 53.909l0.0001 0.00002c-0.02-0.0351-0.039-0.0702-0.059-0.10532-0.054-0.0973-0.1088-0.19458-0.1634-0.29193-0.2101-0.37466-0.4224-0.75002-0.6366-1.1262v-0.00002c0.2205 0.13078 0.4327 0.2603 0.6372 0.38758l0.0001 0.00001c0.7433 0.46257 1.4635 0.93968 2.1628 1.4258 2.2717 1.5756 4.4424 3.3215 6.4648 5.246 2.4855 2.3414 4.7891 5.0658 6.6079 8.234v0.00006c1.9106 3.2713 3.0632 7.1736 2.9313 11.325-0.6973 14.25-1.3845 28.218-2.0609 41.887-0.176 3.0098-0.9358 5.7742-1.9661 8.233-1.1712 2.8486-2.6396 5.4525-4.2247 7.8544-3.536 5.3496-7.6615 10.056-11.898 14.376-6.6453 4.4197-13.173 8.7919-19.579 13.115-0.0713-0.042-0.14264-0.0785-0.21399-0.11505-0.20671-0.11121-0.41343-0.22251-0.62015-0.33389-0.81153-0.43729-1.623-0.8759-2.4343-1.3158-0.00002-0.00002-0.00005-0.00003-0.00007-0.00004 0.002-0.28422 0.002-0.57355 0.0004-0.86795-0.007-1.1188-0.0354-2.2444-0.0777-3.3763-0.15299-4.0903-0.48517-8.1509-0.95123-12.171-1.5174-13.007-4.4101-25.457-8.8789-36.849-2.735-6.9725-6.0544-13.533-10.018-19.454-4.312-6.4412-9.3862-12.141-15.071-16.772-6.4744-5.2867-13.772-9.2024-21.26-11.768-9.568-3.2905-19.462-4.4291-28.903-4.3864-10.073 0.0752-19.706 1.179-28.476 3.3044-8.7702 2.1254-16.681 5.2697-23.567 9.2542-6.5214 3.7529-12.068 8.2315-16.706 12.912-4.6374 4.6809-8.368 9.5669-11.345 14.306-3.3737 5.3695-5.8345 10.527-7.7033 15.171s-3.1464 8.7791-4.085 12.246c-1.0561 3.9035-1.6752 6.9626-2.0904 9.0745-0.21949 1.1164-0.38016 1.967-0.50712 2.5438-0.0652 0.29603-0.12133 0.51929-0.17142 0.66925-0.0254 0.0757-0.0492 0.13261-0.0718 0.17068-0.0319 0.0182-0.0484 0.0323-0.0568 0.042v0.00001c-0.008 0.01-0.009 0.0148-0.009 0.0151v0.00001-0.00001c0.00001-0.00036-0.00002-0.006-0.007-0.016h-0.00001c-0.007-0.0105-0.0223-0.0262-0.0519-0.0476-0.0182-0.0406-0.035-0.10082-0.0502-0.18035-0.03-0.15658-0.0536-0.38856-0.0679-0.69426-0.0277-0.59562-0.02-1.4737 0.0487-2.6228 0.13-2.174 0.472-5.3304 1.2689-9.3666 0.70727-3.5856 1.7685-7.8776 3.4551-12.73 1.6866-4.8529 3.999-10.271 7.2894-15.966 2.9124-5.0391 6.6326-10.265 11.344-15.314 4.7116-5.0487 10.417-9.9227 17.221-14.078 7.188-4.3683 15.453-7.8857 24.601-10.33 9.1487-2.4447 19.185-3.8135 29.651-4.0454 9.9348-0.24696 20.491 0.80087 30.949 4.1819 8.1967 2.6599 16.223 6.8088 23.43 12.513 6.3048 5.0012 11.924 11.118 16.67 18.027 4.3558 6.3399 8.0056 13.309 10.988 20.67 4.8633 12.003 8.0705 25.047 9.7823 38.597 0.53217 4.1895 0.9246 8.4465 1.1313 12.763 0.0572 1.194 0.10014 2.4009 0.12002 3.6208 0.005 0.32089 0.009 0.64726 0.009 0.97913-0.00003-0.00001-0.00005-0.00002-0.00008-0.00003-0.81172-0.28157-1.624-0.5618-2.4371-0.84068-0.20711-0.071-0.41426-0.14198-0.62149-0.21284-0.0715-0.0263-0.14298-0.0525-0.21448-0.0788 4.2036-5.2528 8.4359-10.597 12.696-16.026 3.9161-4.1038 7.6132-8.382 10.601-13.068 1.3576-2.125 2.561-4.2729 3.4279-6.477 0.7332-1.913 1.2738-3.7753 1.3125-5.511 0.5611-13.674 1.1385-27.647 1.7313-41.902 0.1504-2.0844-0.6504-4.4033-1.8593-6.6006v-0.00003c-1.2421-2.1976-3.0318-4.2293-5.0691-6.17-1.6703-1.5717-3.4995-3.0182-5.4409-4.3497-0.5977-0.40885-1.1954-0.79969-1.7954-1.1669-0.00001 0-0.00001 0-0.00002-0.00001-0.16526-0.10113-0.32475-0.19716-0.479-0.28707-0.00001 0-0.00001-0.00001-0.00002-0.00001-0.31297-0.43436-0.62415-0.86752-0.9336-1.2994-0.0804-0.11221-0.1607-0.22433-0.24089-0.33635-0.0289-0.0404-0.0579-0.0809-0.0868-0.12122-2.5327-18.496-5.1331-37.437-7.7937-56.784-0.002-0.01-0.004-0.0193-0.006-0.0289-0.006-0.0275-0.0123-0.0551-0.0186-0.0826-0.007-0.0168-0.0154-0.0379-0.0251-0.0633-0.0792-0.35425-0.16545-0.71569-0.25651-1.0848v-0.00001c0-0.00001-0.00001-0.00003-0.00001-0.00004-0.33154-1.3437-0.70808-2.6911-1.1178-4.0436-1.3349-4.3966-2.9828-8.7063-4.9861-12.848-2.4778-5.0886-5.4233-9.9015-9.1094-13.956-3.7756-4.1224-8.3143-7.5425-13.352-9.1729-8.0891-2.7433-15.45-7.011-22.185-11.819-8.5319-6.0507-16.351-13.206-23.29-21.204-7.6765-8.8366-14.3-18.785-19.343-29.648-4.6569-10.802-7.4215-22.627-7.7458-34.825-0.004-0.00045-0.007-0.0009-0.0106-0.001-0.0103-0.001-0.0206-0.003-0.0309-0.004 0.67111 0.7456 1.3419 1.4912 2.0124 2.2368v0.00001c-0.16708-0.0218-0.33488-0.0436-0.50338-0.0653h-0.00001c-0.65984-0.0853-1.3214-0.16956-1.9847-0.25344-0.00003 0-0.00005-0.00001-0.00007-0.00001-2.5432-0.32162-5.0941-0.63471-7.6522-0.94307-9.3365-1.1254-18.739-2.1834-28.201-3.1932-27.204-2.9028-54.869-5.4079-82.912-7.4044-3.472-0.2472-6.9392-0.48584-10.402-0.71588-38.917-2.5841-77.188-4.1214-114.53-3.7593-18.503 0.17972-36.756 0.82648-54.68 2.2644-16.123 1.2972-31.947 3.1768-47.24 6.3345-27.421 5.6438-53.652 13.545-78.653 22.741-25.001 9.1967-48.771 19.688-71.287 30.678-27.111 13.24-52.425 27.27-76.021 41.413-23.595 14.143-45.472 28.397-65.679 42.223-53.108 36.343-97.121 66.29-129.45 88.068-3.3025 2.1871-6.9192 3.1673-10.288 3.6734-3.7044 0.57963-7.1782 0.72159-10.388 1.0736-33.903 3.736-52.54 5.4863-52.62 4.8546z"/>
    <path id="path3036" d="m892.11 213.14c0.4732-0.50217 2.2149 0.22321 4.9371 2.02s6.4229 4.6689 10.752 8.4949c4.3293 3.826 9.285 8.6091 14.487 14.209 5.2021 5.6002 10.648 12.019 15.964 19.061 5.316 7.0412 9.9957 14.038 13.929 20.591 3.9328 6.5533 7.121 12.661 9.5416 17.909 2.4207 5.2486 4.0786 9.6358 4.986 12.772 0.90736 3.1358 1.071 5.0175 0.44936 5.317-0.62161 0.2995-1.9685-1.0083-3.9249-3.5701s-4.5289-6.3746-7.6741-11.068c-3.1452-4.693-6.8678-10.264-11.111-16.362-4.2434-6.098-9.0097-12.721-14.177-19.56-10.335-13.677-20.348-25.617-27.558-34.38-3.6047-4.3816-6.5001-7.9772-8.368-10.614-1.8679-2.6366-2.706-4.3178-2.2328-4.82z"/>
    <path id="path3040" d="m434.32 251.61c0.008 0.0151 0.0105 0.0337 0.006 0.0557-0.008 0.024-0.0248 0.0525-0.0493 0.0854-0.0488 0.0655-0.1295 0.14867-0.2419 0.24931h-0.00001c-0.22243 0.19917-0.56885 0.46681-1.0368 0.80178-0.91521 0.65508-2.2952 1.5676-4.1218 2.7292-3.4712 2.2076-8.5551 5.314-15.123 9.2658-11.469 6.9004-27.472 16.361-47.252 28.205-0.00001 0-0.00001 0.00001-0.00002 0.00001-14.707 8.8064-31.535 18.859-49.865 30.525-6.0184 3.8311-12.185 7.8063-18.329 12.13-2.0866 1.4693-4.1475 2.9569-6.1237 4.5277-1.3081 1.055-2.5053 2.0038-3.3929 3.0111-2.6382 2.9198-5.2665 5.7246-7.4323 8.7281-0.00001 0.00001-0.00002 0.00002-0.00002 0.00003-0.67938 0.9617-1.2673 1.8154-1.6058 2.6157-0.00001 0.00001-0.00001 0.00002-0.00001 0.00002-0.17764 0.5791-0.34853 0.86431-0.25289 0.78938-0.00001 0-0.00001-0.00001-0.00001-0.00001-0.0607-0.25885-0.0633-0.34978-0.13499-0.4156 0.0593 0.15649 0.5511 0.31943 1.2696 0.66542 2.7009 1.1049 6.0406 1.4181 9.7135 1.8917 0.15888 0.0235 0.43433 0.0216 0.82311 0.0306 0.5464 0.005 1.1232-0.01 1.7306-0.0302 1.8025-0.0615 3.6448-0.18314 5.5298-0.3176 5.938-0.42518 11.987-0.99977 18.156-1.603 18.914-1.8503 38.692-4.0536 59.258-6.3708 52.617-5.9288 110.25-12.749 171.18-19.964 26.114-3.0923 52.83-6.2627 80.01-9.4915 29.825-3.543 59.092-7.0234 87.618-10.412 18.608-2.2101 36.9-4.3815 54.825-6.5093h0.00004c5.1382-0.60993 10.246-1.2163 15.323-1.8193 1.3468-0.15998 2.6914-0.31972 4.0336-0.47928 0.34492-0.041 0.68965-0.082 1.0342-0.12297 0.0948-0.0109 0.18961-0.0219 0.28436-0.0328l0.00001-0.00001c0.0185-0.002 0.0371-0.004 0.0556-0.006 0.005-0.00053 0.009-0.001 0.014-0.002 3.955-0.40546 7.8643-1.8379 11.466-3.8566 3.823-2.1516 7.2992-5.0378 10.48-8.2679 6.6529-6.7682 11.789-14.927 15.745-23.491 1.8435-4.0299 2.8652-8.455 3.0357-12.85 0.17053-4.395-0.51011-8.7599-2.064-12.71-1.2872-3.2407-2.8963-6.2351-4.996-8.6243l-0.00002-0.00002c-2.0405-2.0731-4.1813-3.8752-6.038-3.6962-162.63-6.4754-271.96-11.858-271.89-13.7 0.0635-1.8425 109.5 0.31864 272.19 5.0612 5.2999 0.42579 9.5743 3.1741 12.323 6.5611 0.00001 0.00001 0.00002 0.00003 0.00003 0.00004 2.9306 3.3456 5.1028 7.1814 6.6612 11.137 2.042 5.1426 2.9879 10.694 2.8363 16.264-0.15161 5.57-1.4007 11.159-3.7407 16.337-4.1959 9.3764-9.8532 18.448-17.349 26.236-3.6086 3.7554-7.7521 7.2024-12.498 9.9516-4.496 2.6126-9.586 4.4701-15.018 5.1195-0.0121 0.002-0.0186 0.002-0.025 0.003-0.0255 0.003-0.0511 0.007-0.0766 0.01h-0.00001c-0.0799 0.0104-0.15988 0.0207-0.2398 0.0311-0.34464 0.043-0.68939 0.086-1.0342 0.12897-1.342 0.16728-2.6861 0.33463-4.0324 0.50211-5.0745 0.63128-10.18 1.2645-15.316 1.9h-0.00004c-17.918 2.2169-36.204 4.461-54.808 6.7266-28.519 3.4731-57.786 6.998-87.617 10.542-27.185 3.2294-53.911 6.364-80.04 9.3866-60.953 7.0512-118.66 13.526-171.38 18.957-20.596 2.1221-40.448 4.1107-59.462 5.727-6.1918 0.52663-12.322 1.026-18.39 1.3766-1.9184 0.11131-3.8624 0.21089-5.8306 0.25126-0.66152 0.014-1.352 0.0203-2.0703 0.005-0.44384-0.004-1.0017-0.0285-1.6672-0.10797-3.6185-0.43641-7.6134-0.97703-11.592-2.5419-1.1714-0.40937-2.5429-1.1829-3.8931-2.4771-0.00002-0.00001-0.00003-0.00003-0.00005-0.00004-1.1312-1.1563-1.8274-2.6965-1.975-4.4661-0.00001-0.00003-0.00001-0.00005-0.00001-0.00008-0.007-1.8682 0.40639-3.3446 0.97654-4.3876 0.00001-0.00001 0.00001-0.00002 0.00002-0.00003 0.73875-1.5363 1.6028-2.8151 2.44-3.9058 0-0.00001 0.00001-0.00002 0.00002-0.00003 2.6008-3.447 5.4397-6.4023 8.0963-9.2218 1.4478-1.5241 2.9498-2.7122 4.3253-3.7484 2.1783-1.6666 4.376-3.1963 6.5409-4.6598 6.3812-4.3163 12.71-8.2259 18.836-11.949 18.679-11.354 35.792-21.013 50.771-29.382 0 0 0.00001 0 0.00002-0.00001 20.155-11.261 36.539-20.078 48.4-26.294 6.7932-3.5598 12.107-6.2613 15.812-8.053 1.9494-0.94283 3.4535-1.6337 4.4936-2.0645 0.53187-0.22029 0.94247-0.3726 1.2293-0.45579 0.14493-0.042 0.25827-0.0664 0.33969-0.073 0.0409-0.003 0.0738-0.002 0.0985 0.004 0.0209 0.008 0.0355 0.0198 0.0439 0.035z"/>
    <path id="path3044" d="m51.474 441.22c-0.01109-0.005-0.02055-0.0142-0.02831-0.0265-0.0075-0.0119-0.01336-0.0271-0.01761-0.0455-0.0085-0.0368-0.01045-0.0866-0.0056-0.14896 0.0098-0.12449 0.04703-0.30008 0.11394-0.52336 0.13271-0.44289 0.38414-1.0781 0.77348-1.8814 0.76927-1.587 2.0861-3.8499 4.0986-6.581 2.0114-2.7288 4.7085-5.9418 8.237-9.3961s7.8978-7.146 13.107-10.83c5.5131-3.9016 11.974-7.8096 19.389-11.47 7.4144-3.6603 15.786-7.0694 24.969-10.059 10.375-3.3802 21.798-6.2598 34.146-8.4704s25.622-3.7499 39.594-4.6142h0.00003c74.434-4.6458 169.08-10.087 272.08-15.559 239.7-12.733 434.35-20.83 434.5-18.074 0.14641 2.7561-194.27 15.327-433.97 28.06-103 5.4716-197.69 10.087-272.2 13.353h-0.00002c-13.735 0.60759-26.753 1.8358-38.862 3.7032-12.108 1.8674-23.309 4.3718-33.506 7.364-9.0222 2.6501-17.253 5.673-24.572 8.9378-7.3189 3.2648-13.73 6.7682-19.25 10.281-5.2184 3.3233-9.6409 6.6326-13.275 9.7304-3.6345 3.0978-6.4902 5.98-8.7078 8.4191-2.2196 2.4407-3.7799 4.4277-4.8317 5.7904-0.53239 0.68977-0.93292 1.2159-1.2234 1.5629l-0.000001 0.00001c-0.14642 0.17493-0.26434 0.30323-0.35679 0.38376h-0.000001c-0.04651 0.0406-0.08646 0.0688-0.12022 0.0846-0.01692 0.008-0.03229 0.0127-0.04613 0.0143-0.01435 0.002-0.02707-0.0002-0.03816-0.006z"/>
    <path id="path3050" d="m223.26 339.78c-0.33093-0.60546 3.201-3.2844 9.8666-7.6181 6.6656-4.3338 16.461-10.33 28.694-17.52 12.232-7.1908 26.901-15.58 43.381-24.565 16.48-8.9853 34.774-18.562 54.301-28.003 2.9413-1.422 5.8689-2.8206 8.7801-4.1943 0-0.00001 0-0.00001 0.00001-0.00001 18.588-8.7819 36.58-16.568 53.168-22.892 16.587-6.3244 31.765-11.19 44.633-14.654 12.868-3.4642 23.42-5.5526 30.76-6.638 7.3405-1.0854 11.462-1.2069 11.591-0.55553 0.1289 0.65139-3.7398 2.0152-10.755 4.2125-7.0152 2.1974-17.169 5.2674-29.593 9.5347-12.425 4.2673-27.117 9.7575-43.285 16.5-16.169 6.7426-33.814 14.741-52.242 23.511-0.00001 0-0.00001 0.00001-0.00001 0.00001-2.8828 1.3736-5.7852 2.7667-8.7047 4.1778-19.382 9.368-37.699 18.643-54.351 27.148-16.652 8.5053-31.641 16.235-44.295 22.625-12.654 6.3895-22.97 11.441-30.212 14.726-7.2417 3.285-11.405 4.8105-11.736 4.205z"/>
    <path id="path3054" d="m39.406 455.16c-3.564-0.1-6.204 5.14-7.5 8.46-2.738 7.02-2.59 15.43 0 22.5 1.369 3.74 3.524 8.61 7.5 8.44l66.594-2.81c11.56-0.49 11.56-34.39 0-34.72l-66.594-1.87z"/>
    <path id="path3058" d="m41.275 518.96c0.03398-0.91745 2.5954-1.6792 6.8725-2.2019 4.2771-0.52266 10.268-0.80569 17.358-0.82007 6.212-3.2641 13.502-6.3966 21.353-9.7055-0.08078 0.009-0.1616 0.0178-0.24246 0.0267-6.8918 0.75969-13.424 1.4648-19.373 1.9686-5.9485 0.50382-11.313 0.8053-15.841 0.85107-4.5278 0.0458-8.2187-0.16415-10.788-0.58187-2.5693-0.41771-4.0168-1.0422-4.0294-1.732-0.01254-0.68989 1.4153-1.3666 4.0446-1.8788 2.6293-0.51224 6.4605-0.85893 11.226-0.98213 4.7656-0.12319 10.466-0.0229 16.801 0.25758 6.3357 0.28048 13.307 0.74007 20.586 1.2421 0.08541 0.006 0.17076 0.0118 0.25606 0.0177-7.8876 6.9554-15.341 13.439-21.798 18.437-8.0632-0.57559-14.736-1.3276-19.335-2.179-4.5987-0.85139-7.125-1.8016-7.091-2.719z"/>
    <path id="path3063" d="m610.69 326.65c-0.0439-0.6886 4.9921-1.6673 14.134-2.8585s22.389-2.6014 38.777-4.1141 35.916-3.1306 57.626-4.625 45.603-2.8612 70.715-3.7692c0.61635-0.0223 1.232-0.0442 1.847-0.0659 24.901-0.87696 48.654-1.1883 70.245-0.94266 21.591 0.24565 41.019 1.0457 57.299 2.1363s29.413 2.4583 38.455 3.7036c9.0419 1.2452 13.995 2.3476 13.937 3.0309-0.058 0.68331-5.1184 0.88391-14.214 0.82767-9.0954-0.0562-22.227-0.34888-38.453-0.53268s-35.547-0.24569-57.019 0.0214c-21.471 0.26711-45.093 0.86542-69.896 1.7487-0.61252 0.0218-1.2258 0.0439-1.8397 0.066-25.014 0.90345-48.852 1.9874-70.55 2.9744-21.698 0.98701-41.256 1.873-57.696 2.4821-16.44 0.60916-29.761 0.94414-38.982 0.94164-9.2209-0.002-14.342-0.33611-14.385-1.0247z"/>
    <path id="path3067" d="m924.94 316.33c0.44886-0.13229 1.0261 0.2516 1.7398 1.0291 0.71373 0.7775 1.5679 1.9492 2.6281 3.3783 2.1203 2.8582 5.0948 6.7894 9.4329 10.321 2.0592 1.7062 4.4389 3.3384 7.1142 4.846s5.646 2.8918 8.8104 4.1442c0.007 0.003 0.013 0.005 0.0195 0.008 4.9581 1.9634 9.8894 3.3796 14.494 4.5372 4.6047 1.1576 8.8766 2.0614 12.497 2.8937 3.6206 0.83233 6.5878 1.5912 8.6282 2.3344 2.0404 0.74311 3.157 1.4663 3.115 2.155-0.042 0.68872-1.2366 1.2798-3.3826 1.7349-2.146 0.45507-5.2464 0.77819-9.0967 0.83108-3.8503 0.0529-8.455-0.16524-13.544-0.92292-5.0895-0.75767-10.666-2.0632-16.343-4.2466-0.007-0.003-0.0149-0.006-0.0223-0.009-3.6726-1.4157-7.1409-3.1873-10.236-5.228-3.0956-2.0406-5.8168-4.349-8.0786-6.7712-2.3885-2.5886-4.1796-5.2638-5.4813-7.7576-1.3018-2.4938-2.1175-4.8058-2.5903-6.7519-0.47277-1.9461-0.6062-3.5272-0.52523-4.6387 0.081-1.1116 0.37307-1.7549 0.82193-1.8872z"/>
    <path id="path3075" d="m316.14 442.32c-0.0833-2.7587 106.5-8.2166 237.92-12.183 131.41-3.9662 238.13-4.9461 238.22-2.1874 0.0833 2.7587-106.5 8.2166-237.92 12.183-131.41 3.9662-238.13 4.9461-238.22 2.1874z"/>
  </g>
  <metadata>
    <rdf:RDF>
      <cc:Work>
        <dc:format>image/svg+xml</dc:format>
        <dc:type rdf:resource="http://purl.org/dc/dcmitype/StillImage"/>
        <cc:license rdf:resource="http://creativecommons.org/licenses/publicdomain/"/>
        <dc:publisher>
          <cc:Agent rdf:about="http://openclipart.org/">
            <dc:title>Openclipart</dc:title>
          </cc:Agent>
        </dc:publisher>
        <dc:title>SiluetColtCZ3</dc:title>
        <dc:date>2013-03-18T15:23:18</dc:date>
        <dc:description>car, clip art, clipart, mitsubishi colt, siluete, vechicle, </dc:description>
        <dc:source>http://openclipart.org/detail/176364/siluetcoltcz3-by-koconmus-176364</dc:source>
        <dc:creator>
          <cc:Agent>
            <dc:title>koconmus</dc:title>
          </cc:Agent>
        </dc:creator>
        <dc:subject>
          <rdf:Bag>
            <rdf:li>car</rdf:li>
            <rdf:li>clip art</rdf:li>
            <rdf:li>clipart</rdf:li>
            <rdf:li>mitsubishi colt</rdf:li>
            <rdf:li>siluete</rdf:li>
            <rdf:li>vechicle</rdf:li>
          </rdf:Bag>
        </dc:subject>
      </cc:Work>
      <cc:License rdf:about="http://creativecommons.org/licenses/publicdomain/">
        <cc:permits rdf:resource="http://creativecommons.org/ns#Reproduction"/>
        <cc:permits rdf:resource="http://creativecommons.org/ns#Distribution"/>
        <cc:permits rdf:resource="http://creativecommons.org/ns#DerivativeWorks"/>
      </cc:License>
    </rdf:RDF>
  </metadata>
</svg>
