<?xml version="1.0"?>
<svg xmlns:rdf="http://www.w3.org/1999/02/22-rdf-syntax-ns#" xmlns="http://www.w3.org/2000/svg" xmlns:cc="http://creativecommons.org/ns#" xmlns:dc="http://purl.org/dc/elements/1.1/" xmlns:svg="http://www.w3.org/2000/svg" id="svg2" viewBox="0 0 1052.4 744.09" version="1.1">
  <g id="layer2" transform="translate(0 -308.27)">
    <g id="g3849" transform="matrix(-.84604 0 0 .84604 1255.9 72.963)">
      <path id="path2997" fill-rule="evenodd" d="m980.87 836.2c-0.34019 0.0988-3.2005-8.5116-8.3215-24.952-2.4004-6.5951-5.4479-14.399-9.6183-23.083-3.4582-7.201-7.6478-15.046-13.307-22.85-2.2368-3.0759-4.699-6.157-7.4724-9.0675s-5.8576-5.6508-9.3618-7.9848c-2.9299-1.9566-6.1447-3.6193-9.603-4.7038-3.2869-1.0352-6.8195-1.5508-10.392-1.415-3.7836 0.13564-7.644 1.0116-11.39 2.4594-4.3574 1.6834-8.5586 4.1578-12.586 7.1144-5.3696 3.9378-10.389 8.6522-15.145 13.959-4.7565 5.3068-9.2498 11.207-13.627 17.415-5.6542 8.0201-9.579 17.658-12.297 27.98-2.6297 10.026-4.1471 20.723-5.6478 31.83-1.4195 10.579-2.7887 21.578-5.367 32.754-2.3825 10.38-5.9515 20.958-11.903 30.686-2.6888 4.4078-5.4464 9.179-9.2638 13.549-1.7797 2.0507-3.9175 4.0212-6.5377 5.5717-2.4937 1.4707-5.4438 2.3272-8.5668 2.2611-115.09-3.6375-253.14-8.1884-406.74-13.418-7.2661-0.24422-14.521-1.9179-21.214-5.0077-0.00003-0.00002-0.00006-0.00003-0.00009-0.00004-6.5541-2.9441-12.736-7.6441-16.829-14.307-1.6176-2.7323-2.8498-5.5312-3.8917-8.2558l-0.00003-0.00009c-1.3484-3.4934-2.4718-7.0279-3.4672-10.554l-0.00003-0.00009c-2.4364-8.6229-4.2257-17.411-5.6418-26.239-1.5607-9.7032-2.6669-19.542-3.2538-29.474-0.00001-0.00003-0.00001-0.00006-0.00001-0.0001-0.55363-9.2843-0.67156-18.729 0.0981-28.241 0.0869-1.4542 0.63585-2.9504 1.6676-4.3679 1.0517-1.2498 2.1644-2.0841 3.2257-2.536 2.4014-1.0423 4.4945-1.391 6.0639-1.5236 1.888-0.25434 3.5146-0.38731 4.82-0.70511 1.1307-0.40972 1.8926-0.5057 1.7838-0.67507l0.00005-0.00005c1.8103-1.7776 3.0498-4.4178 4.0354-7.3197 0.00001-0.00003 0.00002-0.00005 0.00003-0.00008 1.0194-3.1151 1.596-6.6062 2.2626-10.318 0.63073-3.6664 1.3287-7.5905 2.6368-11.607 1.2234-3.8607 3.2848-7.7408 6.4872-11.016 14.249-14.104 31.319-25.227 49.5-33.873 18.435-8.7761 37.946-15.224 57.707-20.613 18.987-5.1778 38.292-9.2903 57.542-13.621 19.25-4.3304 38.446-8.8796 57.189-15.033 6.3891-3.3536 12.608-7.0909 18.692-11.114 7.4883-4.9518 14.733-10.31 21.807-15.88 13.126-10.297 25.695-21.34 38.456-32.186 12.935-11.002 26.097-21.815 40.118-31.465 14.388-9.9066 29.726-18.484 45.997-24.73 4.9279-1.8853 9.8924-3.4549 14.815-4.8915 6.4802-1.8939 12.979-3.5692 19.462-5.1208 17.016-4.0726 34.049-7.3511 50.979-10.198 45.816-7.707 91.137-12.283 135.4-14.284 26.029-1.181 51.75-1.4722 77.006-0.63056 25.255 0.84168 50.045 2.8164 74.232 6.0933 24.315 3.2939 48.041 7.9741 70.763 14.548 21.753 6.2876 42.642 14.366 61.781 24.871 17.421 9.5764 33.19 21.168 47.156 34.056 13.967 12.888 26.133 27.072 36.432 41.945 11.478 16.532 20.631 34.182 26.972 52.111 6.341 17.928 9.8718 36.135 10.411 53.979 0.2343 8.0401 0.6341 15.999 0.8737 23.864 0.2395 7.8644 0.319 15.634-0.024 23.296-1.8822 18.565-6.4658 36.097-12.755 52.033-3.0187-7.8633-4.2895-15.675-5.2924-23.073-0.2168-8.6211-0.074-16.893-0.4299-24.816-0.379-8.1182-1.1794-15.879-3.3963-22.89-1.0976-3.456-2.5754-6.738-4.4169-9.6614-1.8414-2.9234-4.0465-5.4884-6.5938-7.5544-2.7563-2.2342-5.5996-4.2565-8.5169-5.8694-2.9174-1.6128-5.9087-2.8164-8.9608-3.4687-2.4847-0.5434-4.9928-0.71762-7.3977-0.47704-2.3404 0.22899-4.6097 0.84839-6.7103 1.7514-4.7145 2.0041-8.5752 5.4255-11.786 9.0469-4.0198 4.5548-7.0281 9.5133-9.5434 14.27-3.3509 6.3433-5.7922 12.349-7.7396 17.744-1.9474 5.3951-3.3952 10.184-4.5583 14.236-1.4245 4.9659-2.3901 8.8428-3.0652 11.533-0.365 1.4546-0.6428 2.5623-0.8497 3.3127-0.1071 0.3884-0.1951 0.68082-0.2657 0.87611-0.061 0.0951-0.099 0.16817-0.1231 0.21747-0.018 0.0239-0.029 0.0424-0.035 0.0551 0 0.006 0 0.0113-0.01 0.0146v0.005l-0.0005-0.00009c0.0009-0.009 0.0008-0.014 0.0001-0.0209 0-0.0139-0.01-0.0348-0.015-0.0633-0.01-0.0546-0.019-0.13631-0.045-0.24628 0-0.20829 0.013-0.51463 0.048-0.91739 0.067-0.77816 0.2068-1.9174 0.4352-3.4062 0.4223-2.7536 1.141-6.7092 2.3289-11.775 0.9677-4.1307 2.2281-9.0181 4.0099-14.552 1.7818-5.5338 4.0793-11.718 7.3309-18.315 2.4386-4.9517 5.4405-10.177 9.5883-15.123 3.3048-3.9575 7.4654-7.7688 12.812-10.229 2.4013-1.0947 5.0232-1.8661 7.777-2.1951 2.8296-0.33277 5.749-0.19483 8.6225 0.38287 3.4884 0.7162 6.8709 1.9932 10.113 3.6891 3.2423 1.6959 6.3443 3.8111 9.2698 6.1482 2.959 2.364 5.5271 5.2404 7.6655 8.4872 2.1383 3.2468 3.8469 6.8642 5.0899 10.666 2.4897 7.5846 3.4928 15.772 3.9637 24.068 0.4749 8.1213 0.4446 16.447 0.7657 24.908-0.5417 7.2516-1.0314 14.603-0.02 21.595v0.00001c4.4168-15.571 6.8988-32.644 6.487-50.636 0.2645-7.4336 0.1081-15.038-0.2071-22.818-0.3152-7.7796-0.7893-15.734-1.0965-23.869-0.6306-17.097-4.1852-34.562-10.458-51.793-6.2724-17.23-15.264-34.226-26.463-50.188-10.101-14.358-21.991-28.033-35.589-40.429s-28.905-23.513-45.755-32.644c-18.531-10.058-38.879-17.786-60.193-23.853-22.265-6.3324-45.585-10.817-69.57-13.973-23.87-3.1407-48.359-4.9963-73.34-5.7389-24.982-0.74263-50.457-0.37243-76.275 0.86457-43.902 2.1105-88.826 6.7506-134.21 14.47-16.773 2.8538-33.584 6.1156-50.308 10.146-6.3705 1.5355-12.71 3.178-18.985 5.0218-4.7843 1.408-9.4933 2.8981-14.047 4.652-15.376 5.8998-30.011 14.128-43.903 23.687-13.552 9.3281-26.435 19.942-39.291 30.875-12.673 10.786-25.337 21.915-38.749 32.448-7.3688 5.7665-14.979 11.346-22.903 16.545-6.4377 4.2234-13.056 8.1768-19.888 11.762-19.408 6.3553-39.036 11.038-58.494 15.435-19.458 4.3974-38.746 8.5108-57.504 13.627-19.435 5.3013-38.397 11.521-56.081 19.936-17.396 8.2873-33.582 18.747-46.861 31.91-1.8328 1.7122-3.1041 4.3039-4.1079 7.1472-1.0508 3.0847-1.6405 6.5518-2.3093 10.228-0.64097 3.6758-1.3318 7.596-2.6026 11.597-0.00001 0.00003-0.00002 0.00007-0.00003 0.0001-1.1939 3.8698-3.1971 7.7662-6.3169 11.083-0.00003 0.00003-0.00005 0.00006-0.00008 0.00009-2.2987 2.0936-4.6635 3.087-6.5986 3.3752-2.1659 0.47244-4.0948 0.65531-5.7315 0.85574-1.5712 0.27263-2.6863 0.32883-3.1377 0.64936-0.0825 0.0944-0.0429-0.00089 0.23098-0.25094 0.23367-0.39165 0.34991-0.60675 0.32994-0.76645-0.75101 8.9056-0.64937 17.904-0.14536 26.893 0 0.00003 0 0.00006 0.00001 0.00009 0.54324 9.5963 1.5903 19.121 3.0772 28.53 1.359 8.5754 3.0452 17.008 5.3352 25.179 0.00001 0.00003 0.00001 0.00006 0.00002 0.00008 0.93645 3.338 1.9575 6.5973 3.1608 9.7302 0.00001 0.00003 0.00002 0.00006 0.00003 0.00008 0.95998 2.4739 1.9522 4.7984 3.1746 6.8365 2.6244 4.6203 7.4268 8.1127 12.688 10.649 0.00003 0.00001 0.00005 0.00002 0.00007 0.00003 5.5068 2.5689 11.564 3.9817 17.622 4.2133 153.58 5.7414 291.61 11.051 406.66 15.632 1.5747 0.10168 3.2844-0.4218 4.8316-1.2766 1.7374-0.95734 3.318-2.445 4.8497-4.1177 3.2718-3.601 5.845-8.0479 8.6712-12.527 5.5344-8.7808 8.937-18.682 11.35-28.601 2.5927-10.711 4.0379-21.52 5.5797-32.115 1.6068-11.112 3.2955-22.051 6.1416-32.479 2.9306-10.776 7.2773-20.982 13.485-29.626 4.5118-6.2789 9.2214-12.287 14.25-17.727 5.0286-5.4396 10.376-10.311 16.106-14.417 4.3282-3.0984 8.943-5.7039 13.793-7.507 4.1871-1.5562 8.5569-2.4585 12.896-2.5559 4.1058-0.0844 8.1131 0.57057 11.823 1.8117 3.8874 1.3053 7.4142 3.2023 10.563 5.4006 3.7413 2.6182 6.9817 5.6019 9.8501 8.7232s5.3644 6.3807 7.591 9.6094c5.659 8.1828 9.7403 16.283 13.042 23.675 3.9946 8.9436 6.8221 16.93 8.9823 23.668 4.4944 16.672 6.6911 25.476 6.351 25.575z"/>
      <path id="path3001" fill-rule="evenodd" d="m816.82 541.42c-0.0598-0.34803 2.4502-1.1505 7.3123-2.2302s12.079-2.424 21.434-3.709c9.3546-1.2851 20.85-2.497 34.226-3.3699 13.377-0.87284 28.637-1.3952 45.446-1.5518h0.00002c15.764 0.27594 32.928 0.95772 51.25 1.6768 18.322 0.71911 37.802 1.4759 58.191 1.5248-6.5442 8.7886-12.736 18.251-18.562 28.295-5.8256 10.044-11.285 20.669-16.391 31.743-11.534 20.494-21.835 42.603-30.177 65.923-0.0141 0.0395-0.0283 0.079-0.0424 0.11857-8.9921-2.6532-18.661-3.826-28.421-4.6862-11.688-1.8274-23.418-2.7387-35.026-3.3247-15.819-0.79594-31.32-0.95512-46.403-0.78483s-29.749 0.66921-43.901 1.254c-19.346 0.80153-37.718 1.8388-54.923 2.9286s-33.244 2.232-47.923 3.2995c-30.472 2.2163-55.082 4.1218-72.094 5.2093s-26.425 1.3863-26.492 0.71933c-0.0662-0.66697 9.2186-2.2385 26.121-4.4893s41.419-5.2102 71.862-8.3258c14.662-1.5006 30.701-3.0398 47.931-4.4851 17.231-1.4453 35.653-2.7966 55.083-3.8653 14.198-0.78255 28.954-1.4512 44.185-1.7599 15.23-0.30867 30.935-0.25648 47.021 0.46687 11.806 0.52892 23.883 1.4317 36.084 3.3037 7.8948 1.8739 16.071 4.2811 23.985 8.3904 0.0106-0.0387 0.0212-0.0774 0.0319-0.11617 6.2696-22.85 14.616-44.421 24.431-64.354 11.941-19.802 25.41-38.009 40.235-53.813-19.858 1.3215-38.741 1.745-56.479 1.9633s-34.33 0.23105-49.605 0.38394h-0.00002c-16.721-0.28958-31.87-0.27288-45.161 0.0535-13.291 0.32641-24.726 0.95127-34.069 1.6223-9.3432 0.67105-16.597 1.3744-21.536 1.7939-4.9386 0.41954-7.5639 0.54245-7.6237 0.19442z"/>
      <path id="path3005" fill-rule="evenodd" d="m1050.1 541.42c0.4472 0.29363-2.5185 5.75-8.3979 15.586-4.9547 8.4957-11.93 20.293-20.055 35.184-3.153 5.7805-6.4942 12.015-9.8634 18.724-3.3692 6.7089-6.7673 13.892-9.9502 21.6-2.2922 5.5594-4.4826 11.335-6.058 17.396-1.6694 3.7508-3.2598 7.4079-3.5056 10.742 15.729 0.15066 32.495-0.007 50.144-0.53929 17.648-0.53221 36.179-1.4392 55.438-2.7351 19.258-1.2959 39.245-2.9806 59.806-5.0143s41.698-4.416 63.257-7.0574c29.554-3.6209 58.256-7.5131 85.723-11.298-0.3966 0.65049-0.1301-0.36572 0.6948-1.3309 0.4786-1.4436 0.8152-2.8066 0.4665-3.5749-0.5558-1.9796-1.6291-4.0017-2.8569-6.1301-1.614-2.7453-3.5078-5.387-5.5217-7.9947-5.1764-6.6937-10.984-12.814-16.945-18.64-6.9543-6.787-14.117-13.056-21.37-18.832-7.1905-5.7211-14.411-10.944-21.756-15.396-12.205-7.4288-25.219-12.249-37.712-15.907-7.2437-2.116-14.341-3.8241-21.203-5.3291-6.8619-1.505-13.489-2.8064-19.812-4.0397-8.364-1.6372-16.388-2.42-23.818-3.1009-10.129-0.92489-19.117-1.4732-26.792-1.9223-9.2743-0.5425-16.629-0.91173-21.828-1.2498-2.8731-0.18685-5.0873-0.36149-6.6049-0.53629-0.7901-0.091-1.3911-0.18198-1.7979-0.27427-0.2072-0.047-0.3639-0.0943-0.4696-0.14217-0.053-0.0241-0.093-0.0484-0.1207-0.0728-0.014-0.037-0.024-0.0559-0.031-0.0655-0.01-0.01-0.011-0.01-0.011-0.01 0.0004-0.00003 0-0.00058 0.011-0.0102 0.01-0.01 0.017-0.0288 0.03-0.066 0.027-0.0249 0.067-0.0498 0.1197-0.0747 0.105-0.0495 0.2613-0.0991 0.4681-0.14871 0.4062-0.0974 1.0075-0.19471 1.7983-0.29042 1.5189-0.18382 3.738-0.36207 6.6189-0.52126 5.2132-0.28807 12.596-0.52276 21.928-0.55462 7.7206-0.0266 16.782 0.0672 27.057 0.56647 7.5082 0.36178 15.731 0.85839 24.544 2.2695 6.3772 1.0206 13.092 2.1259 20.099 3.4581 7.0064 1.3322 14.304 2.8908 21.828 4.8876 12.987 3.4393 26.72 8.231 39.977 15.935 7.8172 4.5588 15.438 9.8751 22.917 15.66 7.5621 5.8432 15.04 12.217 22.312 19.15 6.2212 5.9231 12.381 12.297 18.018 19.427 2.1987 2.7776 4.3421 5.729 6.2749 8.9327 1.4756 2.4062 2.8825 5.1293 3.8615 8.2531 0.9836 3.6615 0.563 7.1958-0.7476 10.058-0.8371 3.0339-3.6243 6.0253-8.3441 7.2514-27.888 3.5856-57.097 7.1518-87.205 10.348-21.963 2.3316-43.511 4.3648-64.468 6.0294s-41.322 2.9602-60.92 3.8629c-19.599 0.90273-38.431 1.4126-56.324 1.556-17.893 0.14345-34.846-0.0791-50.691-0.59315-0.99394-6.1821-0.47266-11.841 0.27863-16.906 1.8801-6.5236 4.3314-12.536 6.8532-18.171 3.4964-7.8238 7.1877-15.043 10.838-21.734 3.6505-6.691 7.2611-12.853 10.679-18.529 8.8218-14.656 16.497-26.093 22.167-34.166 6.6963-9.3186 10.524-14.21 10.971-13.916z"/>
      <path id="path3009" fill-rule="evenodd" d="m589.55 766.99c-0.17924-0.0776-0.17953-0.63769 0.18624-1.6168 0.36577-0.97917 1.1373-2.3787 2.496-3.8817 1.3683-1.523 3.322-3.1798 5.8005-4.7582 2.1636-1.3808 4.7257-2.7603 7.6662-4.0633 2.9404-1.303 6.2612-2.5262 9.8635-3.6851 6.5746-2.1271 14.24-4.0486 22.782-5.7411 7.674-1.5222 16.085-2.8739 25.117-4.0513 13.861-1.8068 29.222-3.2248 45.729-4.187h0.00002c6.7278-0.29044 13.648-0.57964 20.74-0.86659 17.548 2.8788 36.169 6.0291 55.5 9.3546 1.7905 9.429 3.6044 19.038 5.4367 28.775 0.70643 3.754 1.4084 7.4888 2.1056 11.201-27.702 3.1706-54.183 6.131-78.479 8.6393-46.301-0.0609-84.833-0.51466-109.54-1.2752-3.1941-0.13104-5.7989-1.3661-7.7997-2.8201-2.6478-1.8734-4.5529-4.103-5.9446-6.2435-1.8008-2.7367-2.7762-5.458-3.1568-7.7372-0.10543-1.0381-0.0866-2.0114 0.007-2.8623 0.0941-0.85096 0.26213-1.5811 0.44813-2.1762 0.37198-1.1901 0.78884-1.8388 0.97781-2.034 0.0688 0.0298 0.0689 0.0298 0.0689 0.0298s0.00019 0.00008 0.0689 0.0298c-0.009 0.26257-0.19151 0.92697-0.1814 2.0016 0.0101 1.0747 0.25445 2.5919 1.0128 4.4138 0.65277 1.8774 1.8182 4.034 3.6308 6.2253 1.4227 1.6978 3.2099 3.4024 5.4399 4.6739 1.7021 0.93341 3.6046 1.7026 5.3891 1.5327 24.657-1.1463 63.059-2.2011 109.19-2.9841 22.888-1.2028 47.64-2.272 73.607-3.3225-0.73089-2.7934-1.4651-5.601-2.2021-8.4228-1.9117-7.3188-3.7921-14.54-5.6351-21.663-17.532-2.0256-34.415-4.029-50.447-6.0248-6.7801 0.18649-13.407 0.35966-19.862 0.51916h-0.00001c-16.339 0.59529-31.523 1.5504-45.246 2.8212-8.9498 0.82876-17.262 1.7919-24.855 2.8982-8.4626 1.2354-15.997 2.6343-22.495 4.2184-3.5789 0.8799-6.8327 1.773-9.7186 2.7334-2.8858 0.96039-5.4058 1.9849-7.5724 3.0226-2.4685 1.1847-4.4218 2.3718-5.8878 3.4905-1.4403 1.106-2.4134 2.1074-3.0566 2.8121-0.64315 0.70475-0.99522 1.1024-1.1745 1.0248z"/>
      <path id="path3013" fill-rule="evenodd" d="m367.4 790.91c0.049-1.1539 3.4228-2.0754 8.9942-2.6854 2.1251-0.34365 4.5292-0.70923 7.0393-1.2966 1.932-0.47577 3.8026-0.91434 5.1321-1.762 3.7998-2.1211 7.8151-4.4586 11.136-7.5551 0.88192-0.83221 1.7058-1.6708 2.3983-2.5326 0.43635-0.543 0.81367-1.0873 1.1189-1.6377 0.71925-1.2992 1.1827-2.6326 1.1712-3.7907 0.16911-0.62137-0.087-1.3943-0.53479-2.2723-0.44782-0.87798-1.087-1.8606-1.7346-2.8934-1.9647-2.7177-4.4081-5.0164-6.6244-7.0932-2.7279-2.5382-5.1219-4.5936-6.7908-6.2273-0.92231-0.90259-1.6224-1.6694-2.0597-2.3003-0.22702-0.32747-0.38172-0.61737-0.45996-0.86972-0.0391-0.12792-0.0585-0.24615-0.0576-0.35469 0.0445-0.1422 0.0621-0.21833 0.0684-0.2587 0.006-0.0398 0.001-0.0449 0.00052-0.0453-0.00004-0.00002-0.00003-0.00002-0.00003-0.00002s-0.00001 0 0.00003 0.00001c0.0007 0.00021 0.008 0.001 0.0364-0.0271 0.029-0.0288 0.0802-0.0878 0.16886-0.20733v-0.00001c0.0885-0.0636 0.19852-0.11515 0.32916-0.15469 0.25568-0.0785 0.59095-0.11063 0.9985-0.0965 0.78515 0.0272 1.8448 0.2285 3.1312 0.6119 2.326 0.69227 5.4251 1.9738 8.9637 4.0441 2.8583 1.6552 6.1062 3.8731 9.2011 7.1724 0 0.00001 0.00001 0.00001 0.00001 0.00001 1.1703 1.1292 2.3202 2.5639 3.2484 4.3481 0.92826 1.7842 1.6344 3.9182 1.8678 6.4237 0.0773 3.1633-0.72005 6.2552-2.24 8.9094-0.59312 1.0358-1.2533 2.0088-1.965 2.9173-1.1294 1.4419-2.3602 2.6874-3.6153 3.7603-4.5927 3.9587-9.5276 6.4426-13.949 8.1998-3.005 1.197-5.6935 1.4923-7.9458 1.5458-3.1357 0.12664-5.8614-0.0999-8.1521-0.42839-5.6265-1.0852-8.9238-2.2899-8.8748-3.4438z"/>
      <path id="path3021" fill-rule="evenodd" d="m585.27 766.13c0.0416 2.7597-38.011 5.5736-84.939 6.281-46.928 0.70746-85.048-0.95812-85.09-3.7178-0.0416-2.7597 38.011-5.5736 84.939-6.281 46.928-0.70746 85.048 0.95812 85.09 3.7178z"/>
      <path id="path3025" fill-rule="evenodd" d="m415.25 776.39c0.15243-0.62879 2.2574-0.7459 5.9545-0.47292 3.6971 0.27297 8.9881 0.93728 15.522 1.7657 6.5342 0.82844 14.311 1.8205 22.979 2.6322 8.6672 0.81167 18.223 1.4373 28.324 1.4607h0.00001c2.6868 0.0109 5.4118-0.0191 8.1684-0.0914 11.06-0.29027 21.586-1.2412 31.152-2.456 9.5667-1.2148 18.173-2.686 25.415-3.9939 7.2421-1.3079 13.122-2.4476 17.249-3.0652 4.1277-0.61758 6.5082-0.70819 6.719-0.0512 0.21079 0.65701-1.7701 2.0014-5.5961 3.7794-3.826 1.7781-9.502 3.9852-16.689 6.211-7.1867 2.2258-15.888 4.4647-25.702 6.2233-9.8143 1.7586-20.743 3.0283-32.283 3.3398-2.8764 0.0776-5.7227 0.0943-8.5298 0.0525h-0.00001c-10.567-0.17508-20.471-1.1911-29.336-2.5779-8.8651-1.3868-16.693-3.1383-23.166-4.8589-6.4722-1.7206-11.591-3.4095-15.056-4.7961-3.4652-1.3866-5.2789-2.4722-5.1264-3.101z"/>
      <path id="path3029" fill-rule="evenodd" d="m953.53 658.48c0.18861 1.0797-9.6472 3.8273-26.455 7.6001h-0.00001c-15.802 3.8289-37.704 9.0456-62.848 16.172-15.245 4.3232-31.688 9.2972-48.506 15.335-8.5682 3.0764-16.857 6.2997-24.788 9.6582-11.784 4.9916-22.717 10.283-32.428 15.933-4.9712 2.8998-9.6258 5.8622-13.871 8.9064-4.2453 3.0442-8.0815 6.1699-11.48 9.3487-1.5222 1.3595-2.7772 3.0171-3.8934 4.7851s-2.0933 3.6466-3.0203 5.4968c-2.4714 5.0314-4.198 9.8472-5.6359 14.036-3.1817 11.217-5.4282 17.615-6.3067 17.474-0.004-0.00073-0.004-0.00074-0.004-0.00074s0 0.00001-0.004-0.00078c-0.86965-0.1819-0.26098-6.9021 1.5538-18.642 0.93747-4.4802 2.2453-9.7155 4.4754-15.452 0.77976-2.0585 1.7076-4.2388 2.9191-6.4418s2.7065-4.4289 4.6631-6.5321c3.4542-3.6421 7.3851-7.2226 11.74-10.678 4.3552-3.4552 9.1349-6.7847 14.221-9.9713 9.9385-6.2406 21.155-12.013 33.181-17.284 8.0883-3.5465 16.551-6.9027 25.298-10.045 17.167-6.1676 33.937-10.999 49.458-14.951 25.648-6.5352 48.026-10.604 64.217-12.92h0.00001c17.136-2.1568 27.325-2.9074 27.514-1.8277z"/>
      <path id="path3033" fill-rule="evenodd" d="m792.04 743.92c-0.1324-0.67718 7.6447-2.9082 21.883-6.1144s34.943-7.3562 60.667-11.686c25.724-4.3294 56.47-8.8178 90.716-12.913 34.246-4.0954 71.991-7.7944 111.63-10.936 0.3142-0.0249 0.6282-0.0498 0.9422-0.0746 39.527-3.1242 77.211-5.4629 111.49-7.3628 34.278-1.8999 65.151-3.3672 91.08-4.5126s46.917-1.9609 61.436-2.3346c14.519-0.37371 22.57-0.28969 22.618 0.39725s-7.9126 1.9123-22.359 3.4782-35.379 3.4563-61.261 5.5051-56.714 4.248-90.937 6.6532-71.837 5.0225-111.28 8.145c-0.3133 0.0248-0.6266 0.0497-0.9401 0.0745-39.547 3.1385-77.201 6.547-111.39 10.125-34.19 3.5784-64.917 7.3236-90.691 10.745s-46.598 6.4989-61.02 8.5233-22.449 2.9643-22.581 2.2871z"/>
      <path id="path3037" fill-rule="evenodd" d="m351.16 834.49c0.14335-0.71677 1.9385-1.0558 5.2299-0.85102 3.2914 0.20473 8.0809 0.95513 14.054 2.245 0.78554 4.9653 1.6122 10.996 2.4402 17.767 0.82795 6.7715 1.6572 14.283 2.449 22.098 0.0362 0.35765 0.0722 0.71447 0.10803 1.0704-3.4581 1.4597-7.155 2.4191-10.836 2.6478-2.6485-0.61811-5.0671-1.8484-7.0826-3.5344-2.1716-1.9484-3.748-4.1199-4.901-6.3002-1.1529-2.1802-1.8831-4.369-2.3466-6.4133-0.71812-2.86-1.1057-5.5594-1.3198-8.0543-0.21411-2.495-0.25484-4.7861-0.22373-6.8528 0.52735-4.0572 1.055-7.2921 1.4188-9.6309 0.36382-2.3388 0.58928-3.7834 0.85609-4.1806 0.15277-0.0109 0.15366-0.011 0.15366-0.011s0.00089-0.00006 0.15366-0.011c0.32064 0.35642 0.74628 1.78 1.3814 4.0708 0.63515 2.2908 1.4564 5.4504 2.6824 9.1652 0.39232 1.9513 0.80799 4.0594 1.322 6.2457 0.51404 2.1864 1.1261 4.4507 1.9673 6.6957 0.6401 1.5687 1.3197 3.1294 2.1142 4.4943 0.79449 1.365 1.7037 2.5336 2.8404 3.2715 0.88718 0.67111 1.9884 1.162 3.1336 1.3885 0.71609 1.2077 1.7058 2.0234 2.8443 2.6645-0.0373-0.27239-0.0745-0.54523-0.11162-0.81851-0.81131-5.9717-1.5142-11.636-2.0921-16.955-0.57788-5.3187-1.0307-10.293-1.3432-14.77-4.5253-0.80985-8.28-1.7683-10.908-2.7474-2.628-0.97915-4.1276-1.9771-3.9843-2.6939z"/>
      <path id="path3041" fill-rule="evenodd" d="m631.41 841.32c0.7757-0.0165 1.5777 3.8606 2.118 10.55 0.5403 6.6895 0.81653 16.189 0.75777 27.64v0.00001c5.6088-0.10852 11.608-0.2643 17.873-0.67997 6.2653-0.41567 12.796-1.0922 19.473-2.3732 4.0597-0.48746 8.1007-1.1384 11.953-2.2926 2.8358-0.86045 5.5395-1.9246 7.8424-3.4252 1.6312-1.0453 3.1291-2.3301 4.3934-3.8073 0.20819-0.24325 0.4095-0.49111 0.60357-0.74327 1.4425-1.8343 2.575-4.0337 3.5495-6.3778 1.7374-2.6424 3.1047-5.4767 4.3237-8.4094s2.2903-5.9634 3.3952-9.0052c-10.946 0.47429-21.143 0.83638-30.312 1.0416-9.1682 0.20518-17.308 0.2533-24.106 0.14083-13.595-0.22495-21.853-1.1295-21.866-2.259-0.0123-1.1295 8.3027-2.2142 22.646-2.7428 7.1714-0.26431 15.842-0.39891 25.674-0.40025 9.8322-0.001 20.826 0.13041 32.609 0.35764-0.51391 7.7259-0.95583 16.28-3.1276 25.001-1.1696 2.9742-2.7391 5.9684-4.8732 8.7654-0.29953 0.387-0.60876 0.76631-0.92732 1.1376-1.9345 2.2547-4.1832 4.1779-6.6356 5.7252-3.401 2.1208-6.9728 3.5337-10.458 4.4932-4.6863 1.3042-9.2949 1.9731-13.691 2.3656-8.0472 0.25136-15.684-0.0961-22.783-0.63635-7.0993-0.54029-13.662-1.2722-19.601-1.9415v-0.00001c-0.58049-13.07-0.73148-23.649-0.48796-30.908 0.24352-7.2588 0.87918-11.2 1.6549-11.216z"/>
      <path id="path3045" fill-rule="evenodd" d="m391.32 875.5c0.19269-0.0912 0.68208 0.45504 1.4349 1.5956 0.3764 0.57029 0.81727 1.2884 1.3436 2.1165 0.52628 0.82809 1.1353 1.768 1.9069 2.7287 0.67563 0.83456 1.4393 1.6946 2.3846 2.2777 0.72131 0.44406 1.5786 0.75675 2.3909 0.69927 29.601-0.48813 99.359 0.87161 185.52 3.66 1.6557 0.14912 3.6349-0.70758 5.5441-1.8987 1.8789-1.3072 3.4929-2.9756 4.3903-4.8517 2.4776-4.7614 2.9652-10.779 2.4139-16.843-0.62178-6.1318-2.4643-12.279-5.1205-18.181-0.10532-0.22664-0.21097-0.45198-0.31712-0.67583-1.2923-2.7253-2.6488-5.2059-4.3456-7.148-0.87947-0.99019-1.7093-1.8157-2.5446-2.2833h-0.00001c-0.7206-0.40006-1.435-0.67644-1.977-0.64059-76.149-1.1517-143.21-2.8086-187.09-4.5074-0.79998-0.0915-1.748 0.24356-2.6025 0.75176-1.0366 0.62257-1.9507 1.6329-2.8134 2.7535-1.9684 2.6105-3.2281 5.6384-4.1229 8.5949-0.85043 2.7722-1.123 5.55-1.118 8.1716s0.28937 5.0884 0.66361 7.3186c0.44754 2.6245 1.028 4.9373 1.5832 6.938 0.55518 2.0007 1.0872 3.6892 1.5109 5.0611 0.84737 2.7439 1.2433 4.2276 0.95988 4.3618-0.28341 0.13419-1.2339-1.0803-2.6503-3.6403-0.70819-1.28-1.5283-2.8992-2.3793-4.8786-0.85096-1.9794-1.7348-4.3188-2.4983-7.0576v-0.00001c-0.65638-2.334-1.2116-4.9839-1.444-7.9214-0.23243-2.9375-0.14397-6.1641 0.60966-9.5865 0.75504-3.4151 2.0355-7.0669 4.3144-10.549 0.99661-1.5463 2.3092-3.0947 4.0853-4.3943 1.6195-1.1825 3.6709-1.9583 5.985-2.0071 43.913-0.49606 110.99-0.31551 187.14 0.61914 2.6067 0.079 4.9929 0.82473 6.9842 2.0549 0.00001 0 0.00002 0.00001 0.00003 0.00001 2.0418 1.2619 3.6938 2.7788 5.0036 4.3552 2.4969 2.9746 4.3466 6.209 5.815 9.399 0.12061 0.26203 0.23858 0.52356 0.35406 0.78444 3.0599 6.72 5.1691 13.914 5.9265 21.294 0.82192 7.3892-0.0515 15.245-3.5066 22.289-1.8573 3.6054-4.5966 6.5058-7.7546 8.5708-3.1158 2.173-7.0506 3.5467-11.361 3.4759-86.138-3.5639-155.81-7.3443-185.29-10.011-1.6544-0.14842-3.0233-0.82576-4.0519-1.6897-1.2505-1.0583-2.0512-2.2279-2.6496-3.2871v-0.00001c-0.69052-1.2128-1.1625-2.3144-1.5295-3.2703-0.36702-0.95591-0.62618-1.7676-0.81599-2.4266-0.37963-1.318-0.48203-2.032-0.28934-2.1233z"/>
      <rect id="rect3049" transform="matrix(1 0 .067474 .99772 0 0)" height="47.1" width="137.56" stroke="#000" stroke-linecap="round" y="802.14" x="350.99" stroke-width="3.5474" fill="#fff"/>
      <path id="path3052" d="m487.4 769.8 1.5882 3.7516-3.1893 3.7516-1.594-3.7246zm-1.6011 7.5031h4.661l1.5472 3.6706h-4.661zh-4.661l-3.1138 3.6706h4.661z" fill="#f00"/>
    </g>
    <path id="path3095" fill-rule="evenodd" d="m585 862.65c0.0204 0.005 0.0394 0.0162 0.0568 0.0346 0.0166 0.0175 0.0318 0.0414 0.0454 0.0715 0.0268 0.0595 0.0475 0.14348 0.061 0.25133 0.0263 0.21125 0.0252 0.51579-0.0108 0.90746-0.0686 0.74474-0.26341 1.8141-0.65836 3.1616-0.35504 1.2126-0.87155 2.6574-1.6333 4.2784-0.76178 1.621-1.7694 3.4193-3.1228 5.2937-1.2151 1.682-2.7177 3.4152-4.5624 5.0777-1.8448 1.6625-4.0326 3.255-6.592 4.6045-2.6478 1.3816-5.6382 2.4868-8.9065 3.2246-3.2683 0.73789-6.8155 1.1077-10.502 1.0579-6.8775-0.0571-14.445 0.15509-22.681 0.33209-7.9815 0.17309-16.566 0.34304-25.713 0.18281-7.7135-0.13092-15.892-0.45988-24.426-1.6652-6.1228-0.80871-12.847-2.0921-19.299-5.5464-6.2826-3.5612-11.09-9.0607-14.62-14.974-4.3182-7.0735-7.4035-14.933-9.689-23.006-2.5539-8.9535-4.2201-18.339-5.1267-27.933-0.92403-9.7236-1.0813-19.73-0.34315-29.852 0.68698-9.4979 2.1734-19.164 4.8523-28.716 0.35847-1.2874 0.74079-2.5751 1.1492-3.8607 2.2964-7.2296 5.3788-14.257 9.5245-20.681 4.388-6.8462 10.27-12.919 17.537-17.004 3.631-2.008 7.5344-3.4371 11.542-4.2522 4.4051-0.88546 8.8369-1.0442 13.12-0.63787 5.3954 0.49621 10.706 1.7335 15.696 3.7517 4.7303 1.9231 9.0877 4.5347 12.937 7.664 8.1236 6.6685 13.794 15.211 17.673 23.897 4.6052 10.251 7.0761 20.73 8.4751 30.692 1.6498 11.656 1.8763 22.755 1.3702 32.999-0.5578 11.387-2.0434 21.791-4.0613 30.977 0 0 0 0.00001-0.00001 0.00001-1.0419 4.7656-2.2247 9.2436-3.5604 13.356-1.3357 4.112-2.823 7.8588-4.4093 11.209v0.00001c-1.5213 3.2198-3.1954 6.107-5.0116 8.5148-0.82015 1.1043-1.7026 2.1322-2.6356 3.023-0.93308 0.89078-1.9165 1.6451-2.927 2.2422-0.96501 0.56794-1.9874 0.96117-2.9937 1.1581-1.0878 0.20874-2.1215 0.15473-3.0212-0.0614-1.1988-0.29711-2.1015-0.83281-2.7793-1.3605-0.94589-0.73659-1.4892-1.437-1.806-1.9347-0.31683-0.49771-0.4021-0.80341-0.30282-0.89325 0.0993-0.0898 0.38414 0.0384 0.86271 0.32665 0.47857 0.28827 1.1508 0.74859 2.0712 1.1606v0.00001c0.65344 0.29161 1.4386 0.56507 2.3028 0.61216 0.64085 0.0409 1.3499-0.0441 2.0544-0.28946 0.66652-0.2269 1.3474-0.61602 2.0297-1.1291 1.475-1.0999 2.81-2.806 4.1444-4.9194 1.4286-2.3064 2.7172-5.0616 3.9372-8.2051v-0.00001c1.268-3.2758 2.4368-6.9178 3.4696-10.918 1.0328-3.9997 1.9283-8.358 2.7193-13.029v-0.00001c1.5088-8.9701 2.5174-19.063 2.6711-30.069 0.1341-9.9-0.39981-20.518-2.2527-31.512-1.5954-9.3997-4.0798-19.078-8.4325-28.212-3.6802-7.6733-8.6571-15.031-15.448-20.33-3.1841-2.5141-6.7714-4.6024-10.619-6.1105-4.0589-1.6012-8.471-2.5653-13.012-2.9518-3.4591-0.28153-6.9461-0.1405-10.281 0.57323-3.0278 0.63866-5.9897 1.7474-8.7241 3.2829-5.53 3.0385-10.198 8.0379-13.968 13.797-3.5652 5.4906-6.2512 11.718-8.3528 18.302-0.37373 1.1708-0.72789 2.3489-1.0646 3.5318-2.4786 8.7749-3.8753 17.786-4.5752 26.752-0.73941 9.5494-0.65166 19.011 0.14318 28.227 0.7901 9.1004 2.2491 17.923 4.5237 26.275 2.0745 7.5524 4.7012 14.669 8.3756 20.85 3.1077 5.0947 6.6759 9.5981 11.109 12.049 4.6737 2.7882 10.462 3.9144 16.291 4.9497 7.9599 1.3394 15.83 1.8672 23.411 2.2428 8.9589 0.43938 17.475 0.57382 25.451 0.7264 8.206 0.15589 15.877 0.30105 22.89 0.73494 3.2853 0.19666 6.435 0.0639 9.3366-0.39056 2.9016-0.4544 5.5561-1.2296 7.9188-2.2699 2.288-0.99361 4.311-2.2286 6.0674-3.5522 1.7564-1.3235 3.247-2.7363 4.5023-4.1288 1.4066-1.5606 2.5312-3.0909 3.447-4.486 0.91582-1.395 1.6236-2.6559 2.1895-3.7181 0.62884-1.1815 1.079-2.1138 1.4162-2.7541 0.17733-0.33682 0.32255-0.59106 0.4433-0.75998h0.00001c0.0619-0.0869 0.1173-0.15079 0.16699-0.1914 0.0251-0.0205 0.0488-0.0351 0.0711-0.0436 0.0233-0.009 0.0452-0.0111 0.0657-0.006z"/>
    <path id="path3424" fill-rule="evenodd" d="m170.89 799.38c0.55697 0.19266 0.0274 3.4523-1.4783 9.3853-0.48925 1.1027-1.1243 2.2828-1.9722 3.4748-0.84791 1.192-1.9086 2.3968-3.2662 3.5031-1.2684 0.98028-2.7582 1.797-4.4267 2.3634-1.6684 0.56639-3.516 0.88234-5.4528 0.85498h-0.00001c-3.1318-0.008-6.5455 0.12525-10.258 0.27938-3.7121 0.15414-7.723 0.3308-12.053 0.25315-3.6359-0.0577-7.5576-0.27361-11.699-1.0906-3.1205-0.54903-6.6388-1.6559-9.9434-4.1375-1.703-1.3796-3.0541-2.9688-4.1084-4.5789-1.291-1.9316-2.3406-3.9641-3.2179-6.0045-2.1193-4.9136-3.5726-10.168-4.6539-15.493-2.4748-12.059-3.4056-25.195-2.7655-38.745 0.28988-6.3021 0.94614-12.766 2.1936-19.282 0.46467-2.4596 1.0231-4.9511 1.7173-7.4483 0.86358-3.1065 1.9269-6.1808 3.2525-9.1728 1.8338-4.3215 4.5815-8.6981 8.6992-12.142 1.822-1.4861 3.9722-2.6638 6.3666-3.3946 2.4918-0.72148 5.0249-0.87528 7.4354-0.54128h0.00001c2.9971 0.40498 5.8597 1.4063 8.42 2.915 2.6236 1.5704 4.8245 3.5402 6.6185 5.6927 4.2723 5.1784 6.7441 11.014 8.3651 16.542 2.1455 7.1153 3.1865 14.098 3.749 20.677 0.68299 7.8767 0.68537 15.303 0.34483 22.148-0.3782 7.6524-1.1995 14.627-2.2754 20.777-0.55603 3.1936-1.1783 6.1927-1.8774 8.9504-0.69917 2.7577-1.4743 5.2743-2.2957 7.5246v0.00001c-0.7777 2.1381-1.637 4.0816-2.579 5.7286-0.77757 1.4081-1.76 2.7262-2.8828 3.6404-0.47577 0.39671-1.0589 0.71452-1.6794 0.89657-0.64097 0.1797-1.2727 0.135-1.8133-0.0479-0.7234-0.27563-1.1578-0.69067-1.4454-1.0676-0.44764-0.57565-0.63087-1.061-0.71093-1.4029-0.0801-0.34196-0.0487-0.54664 0.0622-0.61564 0.11095-0.069 0.30314 0.001 0.57816 0.17381 0.27502 0.1727 0.63087 0.45812 1.0959 0.69976 0.29729 0.14695 0.62342 0.28854 0.89543 0.25458 0.17152-0.01 0.36562-0.0856 0.52455-0.20075 0.19592-0.11895 0.39228-0.34755 0.63438-0.63632 0.60473-0.73547 1.0515-1.8147 1.5884-3.1854 0.57471-1.5594 1.0681-3.3848 1.5429-5.4774v-0.00001c0.49633-2.2006 0.94993-4.6406 1.3411-7.3165 0.39116-2.6759 0.71892-5.5881 1.0074-8.7211 0.54598-5.9999 0.87539-12.752 0.82559-20.137-0.0468-6.6045-0.38329-13.688-1.324-21.088-0.79551-6.1975-1.9492-12.58-4.0389-18.801-1.672-4.8407-3.6973-9.5606-6.891-13.099-1.2797-1.4361-2.6926-2.6869-4.2317-3.5392-1.4554-0.82848-3.1132-1.3769-4.8033-1.5778h-0.00001c-1.1678-0.12856-2.3379-0.0596-3.3434 0.27041-0.9964 0.28863-2.0086 0.88842-2.9684 1.6556-2.4 1.8354-4.1578 4.9809-5.8121 8.5017-1.0961 2.453-1.9848 5.0613-2.7322 7.7814-0.6008 2.1866-1.1046 4.4221-1.5522 6.6792-1.1631 5.9471-1.8065 11.949-2.1488 17.894-0.72282 12.852-0.10402 25.196 1.9036 36.512 0.89829 4.9984 2.0054 9.6906 3.6669 13.9 0.68703 1.7345 1.4194 3.3352 2.288 4.7329 0.74034 1.1566 1.451 2.1427 2.2369 2.795 1.4674 1.4142 3.8793 2.1687 6.4499 2.8972 3.3808 0.87152 6.8862 1.2448 10.336 1.5286 4.0344 0.32539 7.9556 0.4169 11.687 0.54729 3.7313 0.13039 7.2726 0.29768 10.56 0.61954 1.3112 0.13972 2.6072 0.0665 3.797-0.18456 1.1898-0.25104 2.274-0.67983 3.2073-1.2474 1.0428-0.58123 1.9424-1.3384 2.7282-2.1473 0.78574-0.80889 1.4575-1.6703 2.0395-2.5066 0-0.00001 0-0.00001 0.00001-0.00001 2.3916-5.3337 3.9856-8.2129 4.5426-8.0202z"/>
    <path id="path3428" fill-rule="evenodd" d="m863.13 851.11c0.0415 0.008 0.0818 0.0221 0.1206 0.0434 0.0372 0.0204 0.0731 0.0471 0.10767 0.0802 0.0684 0.0654 0.13136 0.15578 0.18821 0.26996 0.11118 0.225 0.19826 0.54559 0.25523 0.95323 0.10901 0.78024 0.10722 1.8934-0.0665 3.2875-0.31137 2.517-1.1591 6.0254-3.2488 10.012-0.912 1.7482-2.0874 3.5768-3.6012 5.3652s-3.3666 3.5369-5.6262 5.0719c-2.3056 1.5198-4.9417 2.738-7.811 3.5502-2.8693 0.81211-5.9718 1.2175-9.1464 1.1413-5.5822-0.0763-11.624 0.0807-18.043 0.13424-2.0582 0.0182-4.1498 0.0281-6.2706 0.0215-4.9256-0.0154-9.7611-0.12333-14.436-0.39148-6.9905-0.39275-13.725-1.1752-19.778-2.5982-2.8985-0.64263-5.759-1.4951-8.3752-2.6143s-4.9882-2.5034-7.006-4.1002v-0.00001c-2.4249-2.0275-4.1116-4.1767-5.3563-6.1553-1.2448-1.9786-2.0468-3.7911-2.583-5.2999s-0.80461-2.7183-0.88333-3.5774c-0.0787-0.85903 0.0344-1.3704 0.3284-1.5108 0.29398-0.1404 0.75741 0.0968 1.3852 0.65883 0.62781 0.56204 1.4198 1.4528 2.3957 2.5758s2.1339 2.4827 3.5345 3.8732c1.4007 1.3905 3.0417 2.8152 5.0572 3.8972 1.6236 0.95318 3.5374 1.71 5.7402 2.3085 2.2028 0.59845 4.6959 1.0381 7.3938 1.473 5.5423 0.80968 11.776 1.1336 18.55 1.3098 4.5006 0.11109 9.2032 0.13561 14.063 0.15046 2.0926 0.006 4.1688 0.0115 6.2237 0.0231 6.3655 0.033 12.589 0.10764 18.469 0.53709 2.3269 0.16657 4.6014 0.0551 6.7018-0.32675 2.1004-0.38181 4.0268-1.0341 5.7165-1.9247 1.7182-0.86477 3.2511-1.9756 4.6092-3.1746s2.5414-2.4864 3.5692-3.7514c2.3624-2.9294 3.9138-5.7323 5.078-7.7644 0.64383-1.1263 1.1603-2.0178 1.5957-2.6283 0.22752-0.31904 0.43205-0.55809 0.61911-0.71428 0.0956-0.0803 0.18637-0.13802 0.2731-0.17281 0.0438-0.0176 0.0866-0.0293 0.12833-0.0349 0.0436-0.006 0.0862-0.005 0.12767 0.002z"/>
  </g>
  <metadata>
    <rdf:RDF>
      <cc:Work>
        <dc:format>image/svg+xml</dc:format>
        <dc:type rdf:resource="http://purl.org/dc/dcmitype/StillImage"/>
        <cc:license rdf:resource="http://creativecommons.org/licenses/publicdomain/"/>
        <dc:publisher>
          <cc:Agent rdf:about="http://openclipart.org/">
            <dc:title>Openclipart</dc:title>
          </cc:Agent>
        </dc:publisher>
        <dc:title>silhouetteColtCJ</dc:title>
        <dc:date>2013-04-02T12:58:29</dc:date>
        <dc:description>car, clip art, clipart, colt, mitsubishi, silhouette, vechicle, </dc:description>
        <dc:source>http://openclipart.org/detail/176711/silhouettecoltcj-by-koconmus-176711</dc:source>
        <dc:creator>
          <cc:Agent>
            <dc:title>koconmus</dc:title>
          </cc:Agent>
        </dc:creator>
        <dc:subject>
          <rdf:Bag>
            <rdf:li>car</rdf:li>
            <rdf:li>clip art</rdf:li>
            <rdf:li>clipart</rdf:li>
            <rdf:li>colt</rdf:li>
            <rdf:li>mitsubishi</rdf:li>
            <rdf:li>silhouette</rdf:li>
            <rdf:li>vechicle</rdf:li>
          </rdf:Bag>
        </dc:subject>
      </cc:Work>
      <cc:License rdf:about="http://creativecommons.org/licenses/publicdomain/">
        <cc:permits rdf:resource="http://creativecommons.org/ns#Reproduction"/>
        <cc:permits rdf:resource="http://creativecommons.org/ns#Distribution"/>
        <cc:permits rdf:resource="http://creativecommons.org/ns#DerivativeWorks"/>
      </cc:License>
    </rdf:RDF>
  </metadata>
</svg>
